<svg width="534" height="360" viewBox="0 0 534 360" fill="none" xmlns="http://www.w3.org/2000/svg">
<path fill-rule="evenodd" clip-rule="evenodd" d="M456.775 290.217C453.599 290.217 451.024 287.643 451.024 284.467C451.024 281.291 453.599 278.716 456.775 278.716C459.951 278.716 462.525 281.291 462.525 284.467C462.525 287.643 459.951 290.217 456.775 290.217Z" fill="#1A1B1E"/>
<path fill-rule="evenodd" clip-rule="evenodd" d="M299.04 153.842C295.864 153.842 293.289 151.451 293.289 148.502C293.289 145.553 295.864 143.162 299.04 143.162C302.216 143.162 304.791 145.553 304.791 148.502C304.791 151.451 302.216 153.842 299.04 153.842Z" fill="#1A1B1E"/>
<path d="M145.416 230.656C145.416 235.418 149.276 239.279 154.038 239.279C158.8 239.279 162.661 235.418 162.661 230.656C162.661 225.894 158.8 222.034 154.038 222.034C149.276 222.034 145.416 225.894 145.416 230.656ZM154.038 241.997C147.775 241.997 142.697 236.92 142.697 230.656C142.697 224.393 147.775 219.315 154.038 219.315C160.301 219.315 165.379 224.393 165.379 230.656C165.379 236.92 160.301 241.997 154.038 241.997Z" fill="#1A1B1E" stroke="#1A1B1E" stroke-width="0.5"/>
<path d="M402.839 213.535L403.707 213.776L402.839 214.017L400.627 214.63L400.548 214.653C393.65 216.596 388.259 221.987 386.316 228.884L386.294 228.964L386.053 228.897L386.294 228.964L385.68 231.175L385.439 232.044L385.199 231.175L384.585 228.964L384.585 228.964L384.563 228.884C382.62 221.987 377.229 216.596 370.331 214.653L370.251 214.63L368.04 214.017L367.172 213.776L368.04 213.535L370.251 212.922L370.331 212.899C377.229 210.956 382.62 205.565 384.563 198.668L384.585 198.588L384.82 198.653L384.585 198.588L385.199 196.377L385.439 195.508L385.68 196.377L386.294 198.588L386.316 198.668C388.259 205.565 393.65 210.956 400.548 212.899L400.627 212.922L402.839 213.535ZM385.439 201.433C383.174 207.05 378.714 211.51 373.097 213.776C378.714 216.041 383.174 220.501 385.439 226.118C387.705 220.501 392.165 216.041 397.782 213.776C392.165 211.51 387.705 207.05 385.439 201.433Z" fill="#1A1B1E" stroke="#1A1B1E" stroke-width="0.5"/>
<path d="M195.751 193.041L216.172 135.159C195.838 128.791 165.442 95.4665 183.052 60.1713C205.357 15.4641 199.136 -15.1509 194.145 -24.0732L193.844 -24.0498C183.244 -23.224 171.546 -22.3126 170.916 -35.8857C170.351 -48.0554 180.709 -52.8062 185.812 -53.4896C182.462 -64.3301 161.836 -85.3657 133.597 -97.2041C127.459 -99.7777 116.667 -102.699 116.667 -102.699C109.197 -65.4653 94.1103 -51.9538 123.792 -33.1951C139.836 -23.0555 146.13 -2.91855 130.385 29.461C114.641 61.8405 117.964 104.554 133.963 138.976C146.762 166.514 180.488 186.494 195.751 193.041Z" fill="#1A1B1E"/>
<path fill-rule="evenodd" clip-rule="evenodd" d="M260.208 171.71C260.191 171.963 260.074 172.199 259.883 172.365C259.657 172.563 259.35 172.643 259.056 172.581L228.899 166.188C228.44 166.091 227.964 166.233 227.634 166.566C227.304 166.9 227.167 167.377 227.268 167.835L232.869 192.993C232.927 193.25 232.884 193.519 232.751 193.747C232.459 194.244 231.82 194.41 231.324 194.118L231.026 193.944C230.853 193.842 230.704 193.704 230.589 193.539L220.79 179.452C220.068 178.414 219.074 177.594 217.918 177.084L204.349 171.093L212.753 147.178L259.439 170.169C259.95 170.421 260.258 170.956 260.22 171.524L260.208 171.71ZM261.697 174.44C262.438 173.792 262.891 172.876 262.957 171.894L262.969 171.709C263.082 170.026 262.169 168.442 260.656 167.698L212.577 144.02C212.224 143.846 211.812 143.832 211.448 143.981C211.083 144.13 210.799 144.428 210.669 144.8L201.327 171.382C201.089 172.06 201.412 172.808 202.07 173.099L216.805 179.604C217.499 179.91 218.095 180.402 218.528 181.025L228.328 195.113C228.67 195.605 229.115 196.017 229.632 196.32L229.929 196.495C231.738 197.556 234.065 196.95 235.127 195.141C235.613 194.313 235.767 193.331 235.558 192.394L230.423 169.327L258.485 175.276C259.627 175.518 260.817 175.208 261.697 174.44Z" fill="#1A1B1E"/>
<path fill-rule="evenodd" clip-rule="evenodd" d="M241.143 185.712C242.929 184.964 243.956 183.075 243.614 181.169L241.803 171.103C241.668 170.355 240.952 169.857 240.203 169.991C239.454 170.126 238.957 170.842 239.091 171.591L240.902 181.657C241.016 182.292 240.674 182.922 240.078 183.171L235.847 184.943C235.051 185.277 234.149 184.805 233.968 183.962L232.744 178.257L235.436 178.438C236.196 178.489 236.852 177.915 236.903 177.156C236.954 176.397 236.38 175.74 235.621 175.689L231.106 175.386C230.675 175.357 230.255 175.533 229.972 175.859C229.69 176.186 229.577 176.627 229.667 177.05L231.274 184.54C231.817 187.07 234.525 188.484 236.911 187.485L241.143 185.712Z" fill="#1A1B1E"/>
<path d="M356.691 306.393C356.691 285.13 339.454 267.893 318.191 267.893H251.136C229.873 267.893 212.636 285.13 212.636 306.393V312.542H356.691V306.393Z" fill="#0079FD" stroke="#1A1B1E" stroke-width="3"/>
<rect width="163.486" height="13.1446" transform="matrix(-1 0 0 1 366.406 303.362)" fill="#1A1B1E"/>
</svg>
