<svg width="48" height="48" viewBox="0 0 48 48" fill="none" xmlns="http://www.w3.org/2000/svg">
<path opacity="0.5" d="M48 24C48 37.2548 37.2548 48 24 48C10.7452 48 0 37.2548 0 24C0 10.7452 10.7452 0 24 0C37.2548 0 48 10.7452 48 24ZM12 24C12 30.6274 17.3726 36 24 36C30.6274 36 36 30.6274 36 24C36 17.3726 30.6274 12 24 12C17.3726 12 12 17.3726 12 24Z" fill="white"/>
<path d="M24 48C17.6348 48 11.5303 45.4714 7.02944 40.9706C2.52856 36.4697 -1.77068e-07 30.3652 0 24C1.77068e-07 17.6348 2.52856 11.5303 7.02944 7.02944C11.5303 2.52856 17.6348 -7.59042e-08 24 0V12C20.8174 12 17.7652 13.2643 15.5147 15.5147C13.2643 17.7652 12 20.8174 12 24C12 27.1826 13.2643 30.2348 15.5147 32.4853C17.7652 34.7357 20.8174 36 24 36L24 48Z" fill="white"/>
</svg>
