<svg width="48" height="48" viewBox="0 0 48 48" fill="none" xmlns="http://www.w3.org/2000/svg">
<path opacity="0.5" d="M48 24C48 37.2548 37.2548 48 24 48C10.7452 48 0 37.2548 0 24C0 10.7452 10.7452 0 24 0C37.2548 0 48 10.7452 48 24ZM12 24C12 30.6274 17.3726 36 24 36C30.6274 36 36 30.6274 36 24C36 17.3726 30.6274 12 24 12C17.3726 12 12 17.3726 12 24Z" fill="white"/>
<path d="M24 48C20.8483 48 17.7274 47.3792 14.8156 46.1731C11.9038 44.967 9.25804 43.1992 7.02944 40.9706C4.80083 38.742 3.033 36.0962 1.82689 33.1844C0.620778 30.2726 -2.75532e-07 27.1517 0 24H12C12 25.5759 12.3104 27.1363 12.9134 28.5922C13.5165 30.0481 14.4004 31.371 15.5147 32.4853C16.629 33.5996 17.9519 34.4835 19.4078 35.0866C20.8637 35.6896 22.4241 36 24 36L24 48Z" fill="white"/>
</svg>
