<svg width="48" height="48" viewBox="0 0 48 48" fill="none" xmlns="http://www.w3.org/2000/svg">
<path opacity="0.5" d="M48 24C48 37.2548 37.2548 48 24 48C10.7452 48 0 37.2548 0 24C0 10.7452 10.7452 0 24 0C37.2548 0 48 10.7452 48 24ZM12 24C12 30.6274 17.3726 36 24 36C30.6274 36 36 30.6274 36 24C36 17.3726 30.6274 12 24 12C17.3726 12 12 17.3726 12 24Z" fill="white"/>
<path d="M24 48C19.2532 48 14.6131 46.5924 10.6663 43.9553C6.71953 41.3181 3.64339 37.5698 1.82689 33.1844C0.0103876 28.799 -0.464892 23.9734 0.461154 19.3178C1.3872 14.6623 3.67298 10.3859 7.02944 7.02944C10.3859 3.67298 14.6623 1.3872 19.3178 0.461153C23.9734 -0.464892 28.799 0.0103887 33.1844 1.82689C37.5698 3.6434 41.3181 6.71954 43.9553 10.6663C46.5924 14.6131 48 19.2533 48 24L36 24C36 21.6266 35.2962 19.3065 33.9776 17.3332C32.6591 15.3598 30.7849 13.8217 28.5922 12.9134C26.3995 12.0052 23.9867 11.7676 21.6589 12.2306C19.3311 12.6936 17.1929 13.8365 15.5147 15.5147C13.8365 17.1929 12.6936 19.3311 12.2306 21.6589C11.7676 23.9867 12.0052 26.3995 12.9134 28.5922C13.8217 30.7849 15.3598 32.6591 17.3332 33.9776C19.3065 35.2962 21.6266 36 24 36L24 48Z" fill="white"/>
</svg>
