<svg width="36" height="48" viewBox="0 0 36 48" fill="none" xmlns="http://www.w3.org/2000/svg">
<path d="M29.715 4.76999H27.99C27.36 2.46002 25.2601 0.75 22.755 0.75H13.245C10.74 0.75 8.64001 2.46002 8.02497 4.76999H6.28501C3.30002 4.76999 0.870026 7.19999 0.870026 10.185V41.835C0.870041 44.82 3.30002 47.25 6.28501 47.25H29.715C32.7 47.25 35.13 44.82 35.13 41.835V10.185C35.13 7.19999 32.7 4.76999 29.715 4.76999ZM10.095 32.67H25.9201C27.15 32.67 28.1701 33.69 28.1701 34.92C28.1701 36.165 27.15 37.17 25.9201 37.17H10.095C8.85004 37.17 7.84498 36.165 7.84498 34.92C7.84498 33.69 8.85004 32.67 10.095 32.67ZM7.84498 26.97C7.84498 25.725 8.85004 24.72 10.095 24.72H25.9201C27.15 24.72 28.1701 25.725 28.1701 26.97C28.1701 28.2 27.15 29.22 25.9201 29.22H10.095C8.85004 29.22 7.84498 28.2 7.84498 26.97ZM25.9201 21.255H10.095C8.85004 21.255 7.84498 20.25 7.84498 19.005C7.84498 17.76 8.85004 16.755 10.095 16.755H25.9201C27.15 16.755 28.1701 17.76 28.1701 19.005C28.1701 20.25 27.15 21.255 25.9201 21.255ZM12.345 6.16499C12.345 5.65503 12.75 5.25 13.245 5.25H22.755C23.25 5.25 23.6701 5.65503 23.6701 6.16499V7.875C23.6701 8.38505 23.25 8.78999 22.755 8.78999H13.245C12.75 8.78999 12.345 8.38505 12.345 7.875V6.16499Z" fill="white"/>
</svg>
