<svg width="48" height="46" viewBox="0 0 48 46" fill="none" xmlns="http://www.w3.org/2000/svg">
<path d="M40.185 11.705H34.95C34.41 11.705 33.99 11.27 33.99 10.745V6.24499C33.99 3.84502 32.52 1.82007 30.24 1.07007C27.96 0.320068 25.56 1.07007 24.135 3.00504L17.985 11.315C17.805 11.5551 17.52 11.705 17.22 11.705H6.21001C3.195 11.705 0.75 14.15 0.75 17.165V35.1951C0.75 38.2101 3.195 40.655 6.21001 40.655H13.71L34.635 45.065C35.13 45.17 35.61 45.215 36.105 45.215C37.68 45.215 39.21 44.69 40.47 43.7L44.565 40.475C46.275 39.1251 47.25 37.1 47.25 34.9251V18.77C47.25 14.87 44.085 11.705 40.185 11.705ZM11.685 36.155H6.21001C5.68497 36.155 5.25 35.735 5.25 35.1951V17.165C5.25 16.6251 5.68497 16.205 6.21001 16.205H11.685V36.155H11.685Z" fill="white"/>
</svg>
